<?xml version="1.0" encoding="UTF-8"?>
<svg version="1.1" xmlns="http://www.w3.org/2000/svg" width="1024" height="1024">
<path d="M0 0 C63.39924474 -1.53330486 124.41644772 12.85184341 181.95947266 39.08691406 C182.86004395 39.49699707 183.76061523 39.90708008 184.68847656 40.32958984 C198.33011897 46.56994496 198.33011897 46.56994496 200.70947266 48.52441406 C202.96649479 50.25146626 202.96649479 50.25146626 206.02197266 51.08691406 C209.05842 52.12059826 209.80464617 52.88130157 211.95947266 55.08691406 C213.14509001 55.88499681 214.35874223 56.642457 215.59228516 57.36425781 C216.30707031 57.78876221 217.02185547 58.2132666 217.75830078 58.65063477 C218.5259375 59.10398193 219.29357422 59.5573291 220.08447266 60.02441406 C239.32207785 71.60682982 257.86879905 85.02953412 274.18603516 100.48925781 C276.30099037 102.47016657 278.43763354 104.36615314 280.63525391 106.25097656 C285.82980384 110.77385968 290.66407263 115.64570932 295.52197266 120.52441406 C296.88225586 121.87889648 296.88225586 121.87889648 298.27001953 123.26074219 C303.3758386 128.37396636 308.29141549 133.57180451 312.95947266 139.08691406 C313.49531982 139.71073975 314.03116699 140.33456543 314.58325195 140.97729492 C371.95947266 208.08092042 371.95947266 208.08092042 371.95947266 234.08691406 C372.94947266 234.41691406 373.93947266 234.74691406 374.95947266 235.08691406 C375.07863037 235.95429199 375.19778809 236.82166992 375.32055664 237.71533203 C375.95433164 241.05978475 376.91292961 243.87931618 378.18212891 247.03222656 C378.63434814 248.17691406 379.08656738 249.32160156 379.55249023 250.50097656 C380.03741943 251.72558594 380.52234863 252.95019531 381.02197266 254.21191406 C397.61152296 296.93046258 405.17182067 341.50240141 405.20947266 387.21191406 C405.21047974 388.07453857 405.21148682 388.93716309 405.21252441 389.82592773 C405.13689833 486.67180392 367.70658359 579.91445889 298.33447266 655.46582031 C295.91805099 658.06262377 295.91805099 658.06262377 293.77197266 660.92675781 C293.17384766 661.63960937 292.57572266 662.35246094 291.95947266 663.08691406 C291.29947266 663.08691406 290.63947266 663.08691406 289.95947266 663.08691406 C289.59982422 663.95123047 289.59982422 663.95123047 289.23291016 664.83300781 C287.70098937 667.54441363 285.93874214 669.11133288 283.58447266 671.14941406 C279.72845255 674.52481275 275.94907171 677.95791978 272.20947266 681.46191406 C266.35440586 686.87202972 260.17722331 691.78909128 253.84863281 696.63037109 C251.90610909 698.12805739 249.98468168 699.65000526 248.06494141 701.17675781 C169.73154632 762.9881038 66.69762131 789.17471642 -31.86035156 778.68017578 C-72.40587892 773.7756063 -112.83289854 763.63151083 -149.8359375 746.12304688 C-152.19991124 745.0120054 -154.57807857 743.93567709 -156.95849609 742.86035156 C-180.64835886 732.02621754 -202.42839579 718.31881931 -223.109375 702.55664062 C-224.88754608 701.20334228 -226.67191651 699.8587662 -228.45849609 698.51660156 C-247.3495679 684.25569441 -265.7559878 668.17937826 -281.19677734 650.21191406 C-283.25254501 647.84255472 -285.36363275 645.52905883 -287.47802734 643.21191406 C-302.94133899 626.03045667 -316.04628545 606.9083286 -328.16552734 587.27441406 C-328.89461304 586.09903076 -328.89461304 586.09903076 -329.63842773 584.89990234 C-330.08307373 584.1714209 -330.52771973 583.44293945 -330.98583984 582.69238281 C-331.58162842 581.72014771 -331.58162842 581.72014771 -332.18945312 580.72827148 C-333.04052734 579.08691406 -333.04052734 579.08691406 -333.04052734 577.08691406 C-333.70052734 576.75691406 -334.36052734 576.42691406 -335.04052734 576.08691406 C-336.14584841 574.14257986 -337.17773662 572.15601308 -338.16552734 570.14941406 C-338.70435547 569.06789063 -339.24318359 567.98636719 -339.79833984 566.87207031 C-341.04052734 564.08691406 -341.04052734 564.08691406 -341.04052734 562.08691406 C-341.70052734 561.75691406 -342.36052734 561.42691406 -343.04052734 561.08691406 C-344.15857987 558.74363817 -345.18506967 556.42395522 -346.16552734 554.02441406 C-346.58125 553.02958008 -346.58125 553.02958008 -347.00537109 552.01464844 C-347.68972887 550.37454963 -348.36590484 548.73104123 -349.04052734 547.08691406 C-349.70052734 547.08691406 -350.36052734 547.08691406 -351.04052734 547.08691406 C-351.15968506 546.21502441 -351.27884277 545.34313477 -351.40161133 544.44482422 C-352.02826849 541.15134212 -352.96761969 538.44463449 -354.26318359 535.36035156 C-354.7154834 534.26029785 -355.1677832 533.16024414 -355.63378906 532.02685547 C-356.1186377 530.8504248 -356.60348633 529.67399414 -357.10302734 528.46191406 C-362.83310965 514.29084841 -367.24121716 499.8983925 -371.04052734 485.08691406 C-371.2902832 484.11560547 -371.54003906 483.14429688 -371.79736328 482.14355469 C-382.01848915 441.62763552 -385.11059339 399.35530183 -381.75219727 357.76635742 C-381.24993009 351.51239317 -380.93372929 345.36129978 -381.04052734 339.08691406 C-380.38052734 339.08691406 -379.72052734 339.08691406 -379.04052734 339.08691406 C-379.02634766 338.37792969 -379.01216797 337.66894531 -378.99755859 336.93847656 C-377.35912165 300.36147888 -363.96311392 261.83547547 -348.75146484 228.84863281 C-347.02583772 225.10542111 -345.5127992 221.30363017 -344.12255859 217.42285156 C-342.79857444 214.56457529 -341.14293559 212.00723405 -339.4519043 209.35302734 C-336.90405651 205.26219131 -334.59071173 201.03639502 -332.22802734 196.83691406 C-327.78566206 189.01542927 -323.21002806 181.45273326 -318.04052734 174.08691406 C-317.14028728 172.77475729 -316.24058739 171.46222982 -315.34130859 170.14941406 C-305.82345553 156.35572204 -295.4318421 143.38260684 -284.04052734 131.08691406 C-283.06082643 130.01578789 -282.08169577 128.94413994 -281.10302734 127.87207031 C-273.79244341 119.88132518 -266.44510438 112.04773552 -258.21630859 104.98535156 C-255.73400537 102.81946401 -253.32997589 100.57814449 -250.91552734 98.33691406 C-244.56496366 92.55414493 -237.85834525 87.30387291 -231.04052734 82.08691406 C-230.40985352 81.59932617 -229.77917969 81.11173828 -229.12939453 80.609375 C-213.38098667 68.44339309 -196.80092692 58.09776317 -179.42382812 48.41796875 C-177.37027985 47.27107824 -175.32733418 46.10795568 -173.28662109 44.93847656 C-162.30317282 38.81573521 -150.70941114 34.09447734 -139.08447266 29.33398438 C-136.48933838 28.27078692 -133.90117593 27.19260587 -131.31396484 26.11035156 C-118.22482672 20.73250442 -104.65351868 16.8957846 -91.04052734 13.08691406 C-90.16170898 12.8366748 -89.28289062 12.58643555 -88.37744141 12.32861328 C-59.82707342 4.27904359 -29.57718985 0.8454697 0 0 Z " fill="#E6040A" transform="translate(503.04052734375,113.9130859375)"/>
<path d="M0 0 C0.72735352 0.35674805 1.45470703 0.71349609 2.20410156 1.08105469 C20.87892298 10.3632647 37.87351246 21.81501447 54 35 C54.62213379 35.50499023 55.24426758 36.00998047 55.88525391 36.53027344 C69.9916135 48.04771021 82.95047214 60.75170827 93.8046875 75.39892578 C94.93045234 76.90684364 96.0892547 78.38993438 97.25 79.87109375 C104.18648734 88.8018212 110.11968044 98.3529277 116 108 C116.38575195 108.63196289 116.77150391 109.26392578 117.16894531 109.91503906 C130.32594869 131.67329672 139.25847887 155.47659765 147.3125 179.5 C147.72105225 180.71534424 148.12960449 181.93068848 148.55053711 183.18286133 C156.36795734 206.86651123 156.36795734 206.86651123 156 214 C156.66 214 157.32 214 158 214 C158.08378906 212.79214844 158.16757812 211.58429688 158.25390625 210.33984375 C158.98451732 203.8453824 160.96911869 197.77311815 162.9375 191.5625 C163.23619492 190.61467651 163.23619492 190.61467651 163.54092407 189.64770508 C174.97855842 153.46485668 190.54878794 117.77803321 213 87 C213.6182666 86.15211914 213.6182666 86.15211914 214.24902344 85.28710938 C226.64932884 68.44028028 240.68792663 52.22017115 257.1652832 39.25048828 C259.84940393 37.11955857 262.47718212 34.93350802 265.10546875 32.734375 C270.73967681 28.12060986 276.6094959 24.00403541 282.6875 20 C283.73768311 19.30575928 284.78786621 18.61151855 285.86987305 17.89624023 C294.05074318 12.53367829 302.29105903 7.45658717 311 3 C311.70302246 2.63890137 312.40604492 2.27780273 313.13037109 1.90576172 C345.44658313 -14.48281981 380.48606458 -24.58025279 416.8125 -25.3125 C417.61316895 -25.34230957 418.41383789 -25.37211914 419.23876953 -25.40283203 C425.00577924 -25.45931243 428.28921329 -24.37498019 433 -21 C435.79451066 -18.14822478 436.45058717 -16.09037973 436.5 -12.125 C436.39002957 -8.57452599 436.01414616 -6.31977394 433.8125 -3.5 C429.39810657 0.42390527 425.39826877 1.24111109 419.609375 1.859375 C417.72798828 2.07352051 417.72798828 2.07352051 415.80859375 2.29199219 C415.14714355 2.36591187 414.48569336 2.43983154 413.80419922 2.51599121 C364.75759485 8.10324701 318.89707176 27.16410587 281 59 C280.47341797 59.43779785 279.94683594 59.8755957 279.40429688 60.32666016 C271.18327878 67.17364676 263.42944259 74.29763911 256 82 C257.2065625 82.29390625 257.2065625 82.29390625 258.4375 82.59375 C299.89973097 93.14115963 349.64658077 113.37589693 377.875 147.25 C379.5430277 151.32740104 379.25581845 154.80632747 378 159 C374.28653619 163.71710268 371.24192497 165.69076897 365.375 166.5 C356.46303822 166.18930775 348.87518835 158.4758254 342.00585938 153.37939453 C323.18573008 139.48768188 302.72148518 127.71691413 281 119 C280.07888428 118.61835693 280.07888428 118.61835693 279.13916016 118.22900391 C259.59620389 110.11839193 259.59620389 110.11839193 239 107 C237.55291957 108.61743648 237.55291957 108.61743648 236.28515625 110.8203125 C235.76993408 111.65425537 235.25471191 112.48819824 234.72387695 113.34741211 C234.17562256 114.26401611 233.62736816 115.18062012 233.0625 116.125 C232.48910889 117.07060791 231.91571777 118.01621582 231.32495117 118.99047852 C221.03096377 136.11979793 211.84854045 153.61695838 204 172 C203.52336914 173.11109131 203.52336914 173.11109131 203.03710938 174.24462891 C193.71579076 196.27360573 187.24517936 219.6983326 182 243 C181.81630859 243.81114258 181.63261719 244.62228516 181.44335938 245.45800781 C176.17648338 269.3167588 173.20347174 294.2411293 171.63232422 318.60668945 C171.0376108 327.42882396 170.44611111 334.55388889 164 341 C160.52856436 342.73571782 156.79556182 342.46645793 153 342 C149.00955983 339.93088288 146.37286654 337.7945249 144 334 C141.78703804 324.74471884 141.53666019 314.91901342 140.85385132 305.44522095 C135.8407093 237.40683172 116.64672465 167.18614293 77.5859375 110.4296875 C76 108 76 108 76 106 C60.68393746 109.9038834 45.64673625 114.02200495 31 120 C30.26942383 120.29455078 29.53884766 120.58910156 28.78613281 120.89257812 C4.82366505 130.67188405 -16.21991782 145.00841947 -36.79541016 160.49365234 C-37.56030762 161.0655127 -38.32520508 161.63737305 -39.11328125 162.2265625 C-39.79173096 162.73783691 -40.47018066 163.24911133 -41.16918945 163.77587891 C-45.11269254 166.41259373 -49.40774434 166.61869099 -54 166 C-58.79765866 163.60117067 -61.565249 160.77585774 -64 156 C-64.829562 150.193066 -63.43400953 147.59817972 -60 143 C-32.45086905 116.20746877 19.46563376 83 59 83 C50.5272765 72.95617546 41.32695393 64.11902603 31 56 C30.03707031 55.22011719 29.07414063 54.44023437 28.08203125 53.63671875 C0.50714134 31.72359331 -31.86397102 16.42167289 -66 8 C-66.7744043 7.80712402 -67.54880859 7.61424805 -68.34667969 7.41552734 C-79.32112972 4.74524856 -90.29888608 3.20768793 -101.54980469 2.21411133 C-109.10987281 1.45436907 -112.89381513 0.02444316 -118.375 -5.3125 C-120.50118108 -8.8288764 -120.50625344 -10.94997245 -120 -15 C-118.17901954 -19.1211663 -115.66608677 -21.43373926 -112 -24 C-79.4428692 -34.85237693 -28.73578988 -14.10532822 0 0 Z " fill="#010000" transform="translate(356,380)"/>
<path d="M0 0 C0 0.66 0 1.32 0 2 C-1.11375 1.95875 -2.2275 1.9175 -3.375 1.875 C-7.04366025 1.58878141 -7.04366025 1.58878141 -9 4 C-11.14453125 4.4921875 -11.14453125 4.4921875 -13.8125 4.875 C-19.36415975 5.79178785 -24.55442127 7.33692181 -29.90625 9.05078125 C-33.90246613 10.27689302 -37.91050688 11.14252564 -42 12 C-42.99 12.33 -43.98 12.66 -45 13 C-45.66 12.34 -46.32 11.68 -47 11 C-36.44557786 7.49015679 -25.84099591 4.31609447 -15.0625 1.5625 C-14.02673828 1.29163574 -12.99097656 1.02077148 -11.92382812 0.74169922 C-10.94994141 0.49822754 -9.97605469 0.25475586 -8.97265625 0.00390625 C-8.10906494 -0.21450928 -7.24547363 -0.4329248 -6.35571289 -0.65795898 C-3.89562194 -1.01515532 -2.33911792 -0.77925521 0 0 Z " fill="#F72022" transform="translate(436,123)"/>
<path d="M0 0 C0.33 0.99 0.66 1.98 1 3 C-8.66796875 12.66796875 -8.66796875 12.66796875 -10.38745117 14.38549805 C-11.80465358 15.80441698 -13.21535464 17.22982315 -14.625 18.65625 C-16.95730163 20.95786345 -19.35362962 23.14722609 -21.8125 25.3125 C-22.60269531 26.00988281 -23.39289063 26.70726562 -24.20703125 27.42578125 C-25.09455078 28.20501953 -25.09455078 28.20501953 -26 29 C-26.66 28.67 -27.32 28.34 -28 28 C-27.57589844 27.5875 -27.15179688 27.175 -26.71484375 26.75 C-23.57684993 23.66028301 -20.55070183 20.53471928 -17.6875 17.1875 C-12.34341481 10.99706648 -6.68910563 4.75157159 0 0 Z " fill="#F01D1F" transform="translate(243,221)"/>
<path d="M0 0 C0 0.33 0 0.66 0 1 C-13.76805723 5.40577831 -29.76724791 2.72691046 -44 2 C-44 2.66 -44 3.32 -44 4 C-47.63 3.67 -51.26 3.34 -55 3 C-55 2.67 -55 2.34 -55 2 C-49.02134722 1.29488634 -43.07457656 0.7413482 -37.0625 0.4375 C-36.23073242 0.3950415 -35.39896484 0.35258301 -34.54199219 0.30883789 C-23.0354369 -0.21237592 -11.5150805 -0.08830583 0 0 Z " fill="#F63030" transform="translate(526,114)"/>
<path d="M0 0 C0.33 0 0.66 0 1 0 C2.68783672 15.26235329 3.2002224 30.40961696 3.1875 45.75 C3.18858765 47.03535645 3.18858765 47.03535645 3.18969727 48.34667969 C3.18874676 58.28140021 2.96874687 68.10518157 2 78 C1.67 78 1.34 78 1 78 C0.77135028 62.32479149 1.44526265 46.66247807 2 31 C1.34 31 0.68 31 0 31 C0 20.77 0 10.54 0 0 Z " fill="#E42C2C" transform="translate(905,457)"/>
<path d="M0 0 C10.22107681 0.94196994 20.24264302 2.50236559 30.3125 4.5 C31.40361084 4.71358154 32.49472168 4.92716309 33.61889648 5.1472168 C34.64829346 5.35644775 35.67769043 5.56567871 36.73828125 5.78125 C37.65649658 5.96751953 38.57471191 6.15378906 39.52075195 6.34570312 C41.90197989 6.97413157 43.85090619 7.81195457 46 9 C41.79223899 9.90779684 38.98189467 10.00045748 34.875 8.75 C26.06765836 6.33076818 17.03057796 5.25821294 8 4 C8 3.67 8 3.34 8 3 C5.36 2.34 2.72 1.68 0 1 C0 0.67 0 0.34 0 0 Z " fill="#F52829" transform="translate(560,117)"/>
<path d="M0 0 C7.85206856 3.61334128 14.90093894 8.08432713 22 13 C21.34 13.66 20.68 14.32 20 15 C16.8777463 13.95924877 16.22695172 13.22695172 14 11 C12.50475739 10.10178831 10.98154706 9.24895142 9.4375 8.4375 C6.86817488 7.08322518 5.0643321 6.0643321 3 4 C2.01 3.67 1.02 3.34 0 3 C0 2.01 0 1.02 0 0 Z " fill="#F11D1F" transform="translate(712,168)"/>
<path d="M0 0 C0.33 0.99 0.66 1.98 1 3 C-0.88643939 4.65778007 -2.78288717 6.30082802 -4.6875 7.9375 C-5.48317383 8.64036133 -5.48317383 8.64036133 -6.29492188 9.35742188 C-9.45706434 12.05397281 -11.81890155 13.63541442 -16 14 C-4.72727273 2.36363636 -4.72727273 2.36363636 0 0 Z " fill="#EF2426" transform="translate(271,197)"/>
<path d="M0 0 C13.86 0.99 13.86 0.99 28 2 C25.20473202 3.86351199 24.15954373 4.34308907 21 4.75 C19.9790625 4.89695312 19.9790625 4.89695312 18.9375 5.046875 C17 5 17 5 14 3 C11.61322924 2.70547416 9.21373906 2.5071783 6.8125 2.375 C5.54019531 2.30023438 4.26789062 2.22546875 2.95703125 2.1484375 C1.98121094 2.09945312 1.00539063 2.05046875 0 2 C0 1.34 0 0.68 0 0 Z " fill="#F62C2C" transform="translate(527,114)"/>
<path d="M0 0 C0.75929472 2.98613386 1.4118332 5.97514219 2 9 C1.34 9 0.68 9 0 9 C-0.33 11.97 -0.66 14.94 -1 18 C-1.99 18.33 -2.98 18.66 -4 19 C-3.46048934 12.31006781 -2.11293829 6.36539272 0 0 Z " fill="#EC2022" transform="translate(134,399)"/>
<path d="M0 0 C-0.33 0.99 -0.66 1.98 -1 3 C-3.39541268 3.19585135 -5.79092774 3.38192107 -8.1875 3.5625 C-9.19780273 3.64661133 -9.19780273 3.64661133 -10.22851562 3.73242188 C-14.017131 4.00963763 -17.31827794 3.96511161 -21 3 C-21 2.67 -21 2.34 -21 2 C-18.81347261 1.66034526 -16.62571975 1.32857523 -14.4375 1 C-13.21933594 0.814375 -12.00117188 0.62875 -10.74609375 0.4375 C-7.12372152 0.01444923 -3.64287954 -0.07501425 0 0 Z " fill="#F62424" transform="translate(470,117)"/>
<path d="M0 0 C4.03721561 1.56583596 6.47070582 4.44173865 9.25 7.625 C9.70890625 8.140625 10.1678125 8.65625 10.640625 9.1875 C11.76592296 10.4534602 12.88372177 11.72607942 14 13 C13.01 13.495 13.01 13.495 12 14 C10 12.625 10 12.625 8 11 C8 10.34 8 9.68 8 9 C7.34 9 6.68 9 6 9 C4.4921875 7.5390625 4.4921875 7.5390625 2.875 5.625 C2.06675781 4.68527344 2.06675781 4.68527344 1.2421875 3.7265625 C0 2 0 2 0 0 Z " fill="#EB1A1C" transform="translate(808,247)"/>
<path d="M0 0 C-4.30769231 3.93846154 -4.30769231 3.93846154 -7.8125 4.25 C-8.534375 4.1675 -9.25625 4.085 -10 4 C-10.33 4.66 -10.66 5.32 -11 6 C-13.97 5.505 -13.97 5.505 -17 5 C-14.35029405 3.23352937 -11.98501901 2.02985003 -9.0625 0.8125 C-8.20785156 0.44769531 -7.35320312 0.08289063 -6.47265625 -0.29296875 C-3.81725523 -1.05225403 -2.55820275 -0.93187432 0 0 Z " fill="#F52B2D" transform="translate(389,136)"/>
<path d="M0 0 C0.66 0.33 1.32 0.66 2 1 C-1.35033994 5.42723493 -3.69266121 8.5119091 -9.25 9.6875 C-10.1575 9.790625 -11.065 9.89375 -12 10 C-8.29909479 6.0747975 -4.45040344 3.05419844 0 0 Z " fill="#F12324" transform="translate(291,182)"/>
<path d="M0 0 C0.99 0 1.98 0 3 0 C3.83288874 6.25307239 4.03863773 11.76817361 3 18 C2.67 18 2.34 18 2 18 C1.93941406 17.28714844 1.87882812 16.57429687 1.81640625 15.83984375 C1.35191899 10.53039712 0.81924749 5.266591 0 0 Z " fill="#D90005" transform="translate(490,643)"/>
<path d="M0 0 C1.57799862 4.73399586 -0.52678462 8.01716805 -2.625 12.375 C-3.07875 13.24125 -3.5325 14.1075 -4 15 C-4.66 14.67 -5.32 14.34 -6 14 C-5.71125 13.154375 -5.4225 12.30875 -5.125 11.4375 C-4.34169928 9.04408113 -3.63893368 6.62343465 -3 4.1875 C-2.67 3.135625 -2.34 2.08375 -2 1 C-1.34 0.67 -0.68 0.34 0 0 Z " fill="#EF1F21" transform="translate(162,327)"/>
<path d="M0 0 C6.40353322 -0.2361959 11.84629161 0.176679 18 2 C18 2.33 18 2.66 18 3 C13.37350684 4.04894965 10.18102877 3.82806355 5.625 2.5625 C4.56539062 2.27503906 3.50578125 1.98757812 2.4140625 1.69140625 C1.61742187 1.46324219 0.82078125 1.23507813 0 1 C0 0.67 0 0.34 0 0 Z " fill="#F7191B" transform="translate(588,123)"/>
<path d="M0 0 C0.93779297 0.04833984 1.87558594 0.09667969 2.84179688 0.14648438 C4.30649414 0.2305957 4.30649414 0.2305957 5.80078125 0.31640625 C6.78884766 0.36861328 7.77691406 0.42082031 8.79492188 0.47460938 C11.23469801 0.60425931 13.6740623 0.73922367 16.11328125 0.87890625 C16.11328125 1.20890625 16.11328125 1.53890625 16.11328125 1.87890625 C12.86427791 2.10535194 9.61419086 2.30688142 6.36328125 2.50390625 C5.44289063 2.56835938 4.5225 2.6328125 3.57421875 2.69921875 C2.24003906 2.7765625 2.24003906 2.7765625 0.87890625 2.85546875 C-0.34650879 2.934021 -0.34650879 2.934021 -1.59667969 3.01416016 C-4.15512143 2.8630539 -5.69540043 2.16817586 -7.88671875 0.87890625 C-4.85537491 -0.1315417 -3.14275932 -0.17142324 0 0 Z " fill="#FC0409" transform="translate(525.88671875,115.12109375)"/>
<path d="M0 0 C2.97 0.495 2.97 0.495 6 1 C6 1.66 6 2.32 6 3 C7.98 3.99 9.96 4.98 12 6 C11.01 7.485 11.01 7.485 10 9 C7.5 7.625 7.5 7.625 5 6 C5 5.34 5 4.68 5 4 C4.01 4.33 3.02 4.66 2 5 C2 4.01 2 3.02 2 2 C1.34 2 0.68 2 0 2 C0 1.34 0 0.68 0 0 Z " fill="#F02324" transform="translate(696,159)"/>
<path d="M0 0 C-0.33 0.99 -0.66 1.98 -1 3 C-2.98 3.33 -4.96 3.66 -7 4 C-7 4.66 -7 5.32 -7 6 C-9.31 6.33 -11.62 6.66 -14 7 C-11.725306 4.44736912 -9.56797307 3.15855185 -6.4375 1.8125 C-5.65246094 1.46832031 -4.86742187 1.12414062 -4.05859375 0.76953125 C-2 0 -2 0 0 0 Z " fill="#F3292A" transform="translate(352,149)"/>
<path d="M0 0 C0.75 1.6875 0.75 1.6875 1 4 C-1.19434113 7.41341953 -3.20764006 9.51014431 -7 11 C-5.5140084 6.40693504 -3.14985318 3.56430755 0 0 Z " fill="#F01E20" transform="translate(198,270)"/>
<path d="M0 0 C0.33 0.99 0.66 1.98 1 3 C-1.31 4.98 -3.62 6.96 -6 9 C-6.66 8.67 -7.32 8.34 -8 8 C-7.04578192 6.85073734 -6.08647955 5.70569459 -5.125 4.5625 C-4.59132813 3.92441406 -4.05765625 3.28632813 -3.5078125 2.62890625 C-2 1 -2 1 0 0 Z " fill="#F31619" transform="translate(271,197)"/>
<path d="M0 0 C0.33 0 0.66 0 1 0 C1.24954005 1.43410368 1.47392642 2.87260072 1.6875 4.3125 C1.87892578 5.51326172 1.87892578 5.51326172 2.07421875 6.73828125 C2 9 2 9 0.51953125 10.79296875 C0.01808594 11.19128906 -0.48335937 11.58960938 -1 12 C-2.09898702 8.70303895 -1.87124444 7.59505097 -1.0625 4.3125 C-0.86785156 3.50425781 -0.67320312 2.69601562 -0.47265625 1.86328125 C-0.31667969 1.24839844 -0.16070313 0.63351562 0 0 Z " fill="#DA0007" transform="translate(526,706)"/>
<path d="M0 0 C2.12046792 3.53411321 2.53199289 6.94393835 3 11 C2.01 11 1.02 11 0 11 C-0.84098656 6.98195309 -1.05404945 3.98196457 0 0 Z " fill="#DB0006" transform="translate(485,609)"/>
<path d="M0 0 C3.96 0.33 7.92 0.66 12 1 C12 1.33 12 1.66 12 2 C3.585 2.495 3.585 2.495 -5 3 C-5 2.67 -5 2.34 -5 2 C-3.35 2 -1.7 2 0 2 C0 1.34 0 0.68 0 0 Z " fill="#DF2121" transform="translate(552,890)"/>
<path d="M0 0 C-1.50223584 4.20626034 -4.28550034 5.73900021 -8 8 C-7.65978036 4.82461668 -6.97533396 3.97723135 -4.5625 1.75 C-2 0 -2 0 0 0 Z " fill="#E01011" transform="translate(752,812)"/>
<path d="M0 0 C0.66 0 1.32 0 2 0 C1.65120368 3.25543229 0.97866739 4.01873107 -1.5625 6.25 C-2.366875 6.8275 -3.17125 7.405 -4 8 C-3.67 6.35 -3.34 4.7 -3 3 C-2.01 2.67 -1.02 2.34 0 2 C0 1.34 0 0.68 0 0 Z " fill="#E01415" transform="translate(805,761)"/>
<path d="M0 0 C0 0.66 0 1.32 0 2 C-1.11375 1.95875 -2.2275 1.9175 -3.375 1.875 C-7.04366025 1.58878141 -7.04366025 1.58878141 -9 4 C-9 3.34 -9 2.68 -9 2 C-9.99 1.67 -10.98 1.34 -12 1 C-3.96428571 -1.27678571 -3.96428571 -1.27678571 0 0 Z " fill="#F53634" transform="translate(436,123)"/>
<path d="M0 0 C0.99 0.33 1.98 0.66 3 1 C1.71389765 3.5722047 0.66606019 4.00974907 -2 5 C-4.25 4.625 -4.25 4.625 -6 4 C-3.1875 1.9375 -3.1875 1.9375 0 0 Z " fill="#F32425" transform="translate(305,173)"/>
<path d="M0 0 C0.33 0 0.66 0 1 0 C1.22174933 1.45635371 1.42698698 2.91522956 1.625 4.375 C1.74101562 5.18710937 1.85703125 5.99921875 1.9765625 6.8359375 C1.98429687 7.55007813 1.99203125 8.26421875 2 9 C1.34 9.66 0.68 10.32 0 11 C-1.07536348 7.77390955 -1.14375422 5.37822416 -1 2 C-0.67 1.34 -0.34 0.68 0 0 Z " fill="#DA0007" transform="translate(489,626)"/>
<path d="M0 0 C2.64 1.98 5.28 3.96 8 6 C7.01 6.33 6.02 6.66 5 7 C2.3125 5.25 2.3125 5.25 0 3 C0 2.01 0 1.02 0 0 Z " fill="#ED1619" transform="translate(775,213)"/>
<path d="M0 0 C2 1 2 1 3 3 C-3.28571429 5.42857143 -3.28571429 5.42857143 -7 4 C-1.7265625 0.77734375 -1.7265625 0.77734375 0 0 Z " fill="#F32727" transform="translate(335,156)"/>
<path d="M0 0 C3.3 0.66 6.6 1.32 10 2 C7 4 7 4 4.95703125 3.7578125 C2.97135417 3.171875 0.98567708 2.5859375 -1 2 C-0.67 1.34 -0.34 0.68 0 0 Z " fill="#F42828" transform="translate(611,127)"/>
<path d="M0 0 C1.98 0.99 1.98 0.99 4 2 C4 3.98 4 5.96 4 8 C3.67 7.34 3.34 6.68 3 6 C2.34 5.67 1.68 5.34 1 5 C0.375 2.4375 0.375 2.4375 0 0 Z " fill="#E61C1E" transform="translate(159,670)"/>
<path d="M0 0 C3.36720387 1.39332574 4.9859524 2.9789286 7 6 C4 6 4 6 1.8125 4.125 C0 2 0 2 0 0 Z " fill="#EC1114" transform="translate(808,247)"/>
<path d="M0 0 C2.64 0.99 5.28 1.98 8 3 C6.25 4.125 6.25 4.125 4 5 C1.75 4.125 1.75 4.125 0 3 C0 2.01 0 1.02 0 0 Z " fill="#F32122" transform="translate(666,145)"/>
<path d="M0 0 C2.25 0.25 2.25 0.25 4 1 C1.6875 3.0625 1.6875 3.0625 -1 5 C-1.99 4.67 -2.98 4.34 -4 4 C-2.25 1.9375 -2.25 1.9375 0 0 Z " fill="#F51F21" transform="translate(385,135)"/>
<path d="M0 0 C6.875 3.75 6.875 3.75 8 6 C6.35 5.67 4.7 5.34 3 5 C3 4.34 3 3.68 3 3 C2.01 3 1.02 3 0 3 C0 2.01 0 1.02 0 0 Z " fill="#EE1E21" transform="translate(759,200)"/>
<path d="M0 0 C3.82097239 0.53069061 6.06171403 1.49701566 9 4 C8.01 4.33 7.02 4.66 6 5 C5.34 4.67 4.68 4.34 4 4 C4 3.34 4 2.68 4 2 C2.68 2 1.36 2 0 2 C0 1.34 0 0.68 0 0 Z " fill="#F12425" transform="translate(678,151)"/>
<path d="M0 0 C-1.32 0.33 -2.64 0.66 -4 1 C-4 1.66 -4 2.32 -4 3 C-5.875 3.625 -5.875 3.625 -8 4 C-8.66 3.34 -9.32 2.68 -10 2 C-8.71211992 1.46987262 -7.41953322 0.9511671 -6.125 0.4375 C-5.40570313 0.14746094 -4.68640625 -0.14257812 -3.9453125 -0.44140625 C-2 -1 -2 -1 0 0 Z " fill="#F22827" transform="translate(372,142)"/>
<path d="M0 0 C-0.33 0.66 -0.66 1.32 -1 2 C-3.92713788 2.94934202 -5.42831368 3.23176473 -8.3125 2.0625 C-8.869375 1.711875 -9.42625 1.36125 -10 1 C-6.61981469 -0.04005702 -3.5219721 -0.08004482 0 0 Z " fill="#F62627" transform="translate(449,120)"/>
<path d="M0 0 C0.66 0 1.32 0 2 0 C2 0.66 2 1.32 2 2 C1.34 2 0.68 2 0 2 C0 1.34 0 0.68 0 0 Z " fill="#E54544" transform="translate(232,226)"/>
<path d="M0 0 C0 3 0 3 0 3 Z " fill="#E84440" transform="translate(284,184)"/>
<path d="M0 0 C4 1 4 1 4 1 Z " fill="#E7413F" transform="translate(295,176)"/>
<path d="M0 0 C3 1 3 1 3 1 Z " fill="#D72A2A" transform="translate(596,887)"/>
<path d="M0 0 C0.33 0.66 0.66 1.32 1 2 C0.34 1.67 -0.32 1.34 -1 1 C-0.67 0.67 -0.34 0.34 0 0 Z " fill="#DC2D2B" transform="translate(281,818)"/>
<path d="M0 0 C0.99 0.495 0.99 0.495 2 1 C1.01 1.495 1.01 1.495 0 2 C0 1.34 0 0.68 0 0 Z " fill="#DC2B2F" transform="translate(194,733)"/>
<path d="" fill="#E23534" transform="translate(0,0)"/>
<path d="" fill="#E03333" transform="translate(0,0)"/>
<path d="" fill="#E43E3D" transform="translate(0,0)"/>
<path d="" fill="#E2413F" transform="translate(0,0)"/>
<path d="M0 0 C3 1 3 1 3 1 Z " fill="#E83F3D" transform="translate(667,144)"/>
<path d="M0 0 C3 1 3 1 3 1 Z " fill="#E7413F" transform="translate(621,128)"/>
<path d="M0 0 C2 1 2 1 2 1 Z " fill="#DA2727" transform="translate(532,895)"/>
<path d="M0 0 C2 1 2 1 2 1 Z " fill="#DD2A2A" transform="translate(427,886)"/>
<path d="M0 0 C2 1 2 1 2 1 Z " fill="#DD2A28" transform="translate(304,835)"/>
<path d="" fill="#DC2C2A" transform="translate(0,0)"/>
<path d="" fill="#DE2F2F" transform="translate(0,0)"/>
<path d="" fill="#E02F2F" transform="translate(0,0)"/>
<path d="" fill="#DD2F31" transform="translate(0,0)"/>
<path d="" fill="#E33433" transform="translate(0,0)"/>
<path d="" fill="#E43231" transform="translate(0,0)"/>
<path d="" fill="#E13534" transform="translate(0,0)"/>
<path d="M0 0 C2 1 2 1 2 1 Z " fill="#DC3331" transform="translate(890,621)"/>
<path d="" fill="#E23433" transform="translate(0,0)"/>
<path d="" fill="#E23533" transform="translate(0,0)"/>
<path d="" fill="#DF3433" transform="translate(0,0)"/>
<path d="" fill="#E03636" transform="translate(0,0)"/>
<path d="" fill="#E63E3B" transform="translate(0,0)"/>
<path d="" fill="#E23837" transform="translate(0,0)"/>
<path d="" fill="#E84440" transform="translate(0,0)"/>
<path d="" fill="#E43C3E" transform="translate(0,0)"/>
<path d="M0 0 C2 1 2 1 2 1 Z " fill="#EA4442" transform="translate(310,168)"/>
<path d="M0 0 C2 1 2 1 2 1 Z " fill="#EC453F" transform="translate(336,152)"/>
<path d="M0 0 C2 1 2 1 2 1 Z " fill="#EC4340" transform="translate(355,145)"/>
<path d="M0 0 C2 1 2 1 2 1 Z " fill="#EC4743" transform="translate(400,128)"/>
<path d="" fill="#752925" transform="translate(0,0)"/>
<path d="" fill="#D92A2A" transform="translate(0,0)"/>
<path d="" fill="#DA2A2A" transform="translate(0,0)"/>
<path d="" fill="#DA2A2A" transform="translate(0,0)"/>
<path d="" fill="#DB292A" transform="translate(0,0)"/>
<path d="" fill="#DD2B2A" transform="translate(0,0)"/>
<path d="" fill="#DD2926" transform="translate(0,0)"/>
<path d="" fill="#DA2A28" transform="translate(0,0)"/>
<path d="" fill="#D92A29" transform="translate(0,0)"/>
<path d="" fill="#DB2B2C" transform="translate(0,0)"/>
<path d="" fill="#DD2C2B" transform="translate(0,0)"/>
<path d="" fill="#DB2D29" transform="translate(0,0)"/>
<path d="" fill="#DE2827" transform="translate(0,0)"/>
<path d="" fill="#D92B29" transform="translate(0,0)"/>
<path d="" fill="#D92C2A" transform="translate(0,0)"/>
<path d="" fill="#D9272A" transform="translate(0,0)"/>
<path d="" fill="#DF2C2E" transform="translate(0,0)"/>
<path d="" fill="#DB2B29" transform="translate(0,0)"/>
<path d="" fill="#D62A2A" transform="translate(0,0)"/>
<path d="" fill="#DC2B2A" transform="translate(0,0)"/>
<path d="" fill="#DA2A2C" transform="translate(0,0)"/>
<path d="" fill="#DB2727" transform="translate(0,0)"/>
<path d="" fill="#DC2C2C" transform="translate(0,0)"/>
<path d="" fill="#DD2929" transform="translate(0,0)"/>
<path d="" fill="#DC2D2C" transform="translate(0,0)"/>
<path d="" fill="#D92626" transform="translate(0,0)"/>
<path d="" fill="#DF2728" transform="translate(0,0)"/>
<path d="" fill="#DD292A" transform="translate(0,0)"/>
<path d="" fill="#DC2727" transform="translate(0,0)"/>
<path d="" fill="#DB2827" transform="translate(0,0)"/>
<path d="" fill="#DD2929" transform="translate(0,0)"/>
<path d="" fill="#DE2A2A" transform="translate(0,0)"/>
<path d="" fill="#DE2A2A" transform="translate(0,0)"/>
<path d="" fill="#DB2A2B" transform="translate(0,0)"/>
<path d="" fill="#DD3131" transform="translate(0,0)"/>
<path d="" fill="#DE2E2E" transform="translate(0,0)"/>
<path d="" fill="#DF2E31" transform="translate(0,0)"/>
<path d="" fill="#DB3632" transform="translate(0,0)"/>
<path d="" fill="#DE3231" transform="translate(0,0)"/>
<path d="" fill="#DB2F2E" transform="translate(0,0)"/>
<path d="" fill="#DE2D2E" transform="translate(0,0)"/>
<path d="" fill="#DA2E2F" transform="translate(0,0)"/>
<path d="" fill="#D72C2F" transform="translate(0,0)"/>
<path d="" fill="#DD2E2F" transform="translate(0,0)"/>
<path d="" fill="#DC2D2A" transform="translate(0,0)"/>
<path d="" fill="#D92F2F" transform="translate(0,0)"/>
<path d="" fill="#D93132" transform="translate(0,0)"/>
<path d="" fill="#D52B2D" transform="translate(0,0)"/>
<path d="" fill="#DD2C2C" transform="translate(0,0)"/>
<path d="" fill="#DD3030" transform="translate(0,0)"/>
<path d="" fill="#DE312F" transform="translate(0,0)"/>
<path d="" fill="#DB2D2E" transform="translate(0,0)"/>
<path d="" fill="#DE312F" transform="translate(0,0)"/>
<path d="" fill="#E33430" transform="translate(0,0)"/>
<path d="" fill="#E13131" transform="translate(0,0)"/>
<path d="" fill="#DC3030" transform="translate(0,0)"/>
<path d="" fill="#E33331" transform="translate(0,0)"/>
<path d="" fill="#E33533" transform="translate(0,0)"/>
<path d="" fill="#E13434" transform="translate(0,0)"/>
<path d="" fill="#E03233" transform="translate(0,0)"/>
<path d="" fill="#DB2F31" transform="translate(0,0)"/>
<path d="" fill="#DA3130" transform="translate(0,0)"/>
<path d="" fill="#E53434" transform="translate(0,0)"/>
<path d="" fill="#DE2E2E" transform="translate(0,0)"/>
<path d="" fill="#DD3031" transform="translate(0,0)"/>
<path d="" fill="#DD3031" transform="translate(0,0)"/>
<path d="" fill="#E33234" transform="translate(0,0)"/>
<path d="" fill="#E13534" transform="translate(0,0)"/>
<path d="" fill="#DD312F" transform="translate(0,0)"/>
<path d="" fill="#DF2F2F" transform="translate(0,0)"/>
<path d="" fill="#DA3031" transform="translate(0,0)"/>
<path d="" fill="#DC3130" transform="translate(0,0)"/>
<path d="" fill="#DF3030" transform="translate(0,0)"/>
<path d="" fill="#E63533" transform="translate(0,0)"/>
<path d="" fill="#E53434" transform="translate(0,0)"/>
<path d="" fill="#E53734" transform="translate(0,0)"/>
<path d="" fill="#E73637" transform="translate(0,0)"/>
<path d="" fill="#E43838" transform="translate(0,0)"/>
<path d="" fill="#E23434" transform="translate(0,0)"/>
<path d="" fill="#E03433" transform="translate(0,0)"/>
<path d="" fill="#DE3133" transform="translate(0,0)"/>
<path d="" fill="#E13435" transform="translate(0,0)"/>
<path d="" fill="#DE3234" transform="translate(0,0)"/>
<path d="" fill="#DE3434" transform="translate(0,0)"/>
<path d="" fill="#E13736" transform="translate(0,0)"/>
<path d="" fill="#E63E3E" transform="translate(0,0)"/>
<path d="" fill="#E13736" transform="translate(0,0)"/>
<path d="" fill="#DB3336" transform="translate(0,0)"/>
<path d="" fill="#E03537" transform="translate(0,0)"/>
<path d="" fill="#E13233" transform="translate(0,0)"/>
<path d="" fill="#DF3835" transform="translate(0,0)"/>
<path d="" fill="#E13533" transform="translate(0,0)"/>
<path d="" fill="#E53738" transform="translate(0,0)"/>
<path d="" fill="#E73F3D" transform="translate(0,0)"/>
<path d="" fill="#E13838" transform="translate(0,0)"/>
<path d="" fill="#E13435" transform="translate(0,0)"/>
<path d="" fill="#E33635" transform="translate(0,0)"/>
<path d="" fill="#E73E3E" transform="translate(0,0)"/>
<path d="" fill="#DE3637" transform="translate(0,0)"/>
<path d="" fill="#E74340" transform="translate(0,0)"/>
<path d="" fill="#DF3839" transform="translate(0,0)"/>
<path d="" fill="#E03937" transform="translate(0,0)"/>
<path d="" fill="#E23637" transform="translate(0,0)"/>
<path d="" fill="#E14041" transform="translate(0,0)"/>
<path d="" fill="#E6413E" transform="translate(0,0)"/>
<path d="" fill="#E6413E" transform="translate(0,0)"/>
<path d="" fill="#E73F3F" transform="translate(0,0)"/>
<path d="" fill="#E33738" transform="translate(0,0)"/>
<path d="" fill="#E03938" transform="translate(0,0)"/>
<path d="" fill="#E5413E" transform="translate(0,0)"/>
<path d="" fill="#DC3638" transform="translate(0,0)"/>
<path d="" fill="#E13637" transform="translate(0,0)"/>
<path d="" fill="#E23636" transform="translate(0,0)"/>
<path d="" fill="#E04444" transform="translate(0,0)"/>
<path d="" fill="#E03839" transform="translate(0,0)"/>
<path d="" fill="#E03739" transform="translate(0,0)"/>
<path d="" fill="#E44141" transform="translate(0,0)"/>
<path d="" fill="#E23937" transform="translate(0,0)"/>
<path d="" fill="#E03938" transform="translate(0,0)"/>
<path d="" fill="#E13636" transform="translate(0,0)"/>
<path d="" fill="#EA403D" transform="translate(0,0)"/>
<path d="" fill="#E33434" transform="translate(0,0)"/>
<path d="" fill="#E13736" transform="translate(0,0)"/>
<path d="" fill="#E83E3B" transform="translate(0,0)"/>
<path d="" fill="#E7423F" transform="translate(0,0)"/>
<path d="" fill="#E6413F" transform="translate(0,0)"/>
<path d="" fill="#E7403E" transform="translate(0,0)"/>
<path d="" fill="#E43937" transform="translate(0,0)"/>
<path d="" fill="#E23B39" transform="translate(0,0)"/>
<path d="" fill="#E13C38" transform="translate(0,0)"/>
<path d="" fill="#E13838" transform="translate(0,0)"/>
<path d="" fill="#E54542" transform="translate(0,0)"/>
<path d="" fill="#E13C3E" transform="translate(0,0)"/>
<path d="" fill="#E44744" transform="translate(0,0)"/>
<path d="" fill="#E34443" transform="translate(0,0)"/>
<path d="" fill="#E54444" transform="translate(0,0)"/>
<path d="" fill="#E64644" transform="translate(0,0)"/>
<path d="" fill="#DE3C3C" transform="translate(0,0)"/>
<path d="" fill="#E44844" transform="translate(0,0)"/>
<path d="" fill="#E64543" transform="translate(0,0)"/>
<path d="" fill="#E74843" transform="translate(0,0)"/>
<path d="" fill="#EE4442" transform="translate(0,0)"/>
<path d="" fill="#E74741" transform="translate(0,0)"/>
<path d="" fill="#E83D3C" transform="translate(0,0)"/>
<path d="" fill="#E73E3A" transform="translate(0,0)"/>
<path d="" fill="#E74441" transform="translate(0,0)"/>
<path d="" fill="#E93E3D" transform="translate(0,0)"/>
<path d="" fill="#E43E3D" transform="translate(0,0)"/>
<path d="" fill="#E94440" transform="translate(0,0)"/>
<path d="" fill="#E74845" transform="translate(0,0)"/>
<path d="" fill="#E73D3B" transform="translate(0,0)"/>
<path d="" fill="#E6413D" transform="translate(0,0)"/>
<path d="" fill="#E8403A" transform="translate(0,0)"/>
<path d="" fill="#E8403E" transform="translate(0,0)"/>
<path d="" fill="#EA4642" transform="translate(0,0)"/>
<path d="" fill="#EB4846" transform="translate(0,0)"/>
<path d="" fill="#EA4742" transform="translate(0,0)"/>
<path d="" fill="#EB4942" transform="translate(0,0)"/>
<path d="" fill="#EC403E" transform="translate(0,0)"/>
<path d="" fill="#EB4342" transform="translate(0,0)"/>
<path d="" fill="#EB4542" transform="translate(0,0)"/>
<path d="" fill="#ED413C" transform="translate(0,0)"/>
<path d="" fill="#EC403E" transform="translate(0,0)"/>
<path d="" fill="#EF4341" transform="translate(0,0)"/>
<path d="" fill="#ED4844" transform="translate(0,0)"/>
<path d="" fill="#EE4946" transform="translate(0,0)"/>
<path d="" fill="#ED4845" transform="translate(0,0)"/>
<path d="" fill="#E7403D" transform="translate(0,0)"/>
<path d="" fill="#EE4646" transform="translate(0,0)"/>
<path d="" fill="#F04441" transform="translate(0,0)"/>
<path d="" fill="#EE4543" transform="translate(0,0)"/>
<path d="" fill="#ED4642" transform="translate(0,0)"/>
<path d="" fill="#EE4745" transform="translate(0,0)"/>
<path d="" fill="#F34240" transform="translate(0,0)"/>
<path d="" fill="#EF4342" transform="translate(0,0)"/>
<path d="" fill="#EB3F3F" transform="translate(0,0)"/>
<path d="" fill="#F14541" transform="translate(0,0)"/>
<path d="" fill="#F04644" transform="translate(0,0)"/>
<path d="" fill="#F24440" transform="translate(0,0)"/>
<path d="" fill="#F44745" transform="translate(0,0)"/>
<path d="" fill="#F1423F" transform="translate(0,0)"/>
<path d="" fill="#F14646" transform="translate(0,0)"/>
<path d="" fill="#F24544" transform="translate(0,0)"/>
</svg>
